<?xml version="1.0" standalone="no"?>
<!DOCTYPE svg PUBLIC "-//W3C//DTD SVG 20010904//EN"
 "http://www.w3.org/TR/2001/REC-SVG-20010904/DTD/svg10.dtd">
<svg version="1.0" xmlns="http://www.w3.org/2000/svg"
 width="1200.000000pt" height="1200.000000pt" viewBox="0 0 1200.000000 1200.000000"
 preserveAspectRatio="xMidYMid meet">

<g transform="translate(0.000000,1200.000000) scale(0.100000,-0.100000)"
fill="#000000" stroke="none">
<path d="M5453 7618 l-533 -221 0 -44 c0 -24 1 -43 3 -43 1 0 244 81 540 179
l537 179 537 -179 c296 -98 539 -179 540 -179 2 0 3 20 3 43 l0 44 -534 221
c-294 122 -540 222 -548 222 -7 -1 -253 -100 -545 -222z"/>
<path d="M5884 7366 c-91 -42 -154 -143 -154 -245 0 -32 10 -66 33 -110 87
-172 302 -202 432 -60 39 42 73 104 63 114 -3 3 -21 -2 -41 -10 -101 -42 -232
8 -284 108 -26 51 -28 128 -5 180 12 26 18 47 14 47 -4 0 -30 -11 -58 -24z"/>
<path d="M5349 6657 c-75 -50 -86 -137 -26 -203 80 -88 227 -30 227 90 0 105
-116 170 -201 113z"/>
<path d="M5763 6670 c-45 -14 -100 -72 -112 -117 -6 -21 -11 -82 -11 -135 l0
-98 -95 0 c-67 0 -105 -5 -126 -15 -59 -31 -62 -111 -6 -146 31 -18 59 -19
715 -19 l682 0 0 75 c0 112 -41 191 -124 240 -80 47 -402 177 -486 196 -98 23
-384 35 -437 19z"/>
<path d="M5010 6140 l0 -450 90 0 90 0 0 90 0 90 810 0 810 0 0 -90 0 -90 90
0 90 0 0 180 0 180 -900 0 -900 0 0 270 0 270 -90 0 -90 0 0 -450z"/>
<path d="M7400 5805 l0 -95 1425 0 1425 0 0 95 0 95 -1425 0 -1425 0 0 -95z"/>
<path d="M1750 5785 l0 -95 1425 0 1425 0 0 95 0 95 -1425 0 -1425 0 0 -95z"/>
<path d="M5970 5185 c0 -11 11 -15 40 -15 l40 0 0 -494 0 -495 -37 -3 c-20 -2
-38 -9 -41 -15 -3 -10 43 -13 207 -13 181 0 211 2 211 15 0 11 -11 15 -40 15
l-40 0 0 510 0 510 -170 0 c-144 0 -170 -2 -170 -15z"/>
<path d="M6580 5174 c-68 -25 -90 -57 -90 -135 0 -45 4 -55 34 -85 32 -32 39
-34 98 -34 90 0 132 30 143 106 8 50 -13 106 -50 130 -26 17 -107 28 -135 18z"/>
<path d="M2900 5115 c0 -11 12 -15 45 -15 l45 0 0 -460 0 -460 -45 0 c-33 0
-45 -4 -45 -15 0 -13 31 -15 220 -15 189 0 220 2 220 15 0 11 -11 15 -40 15
l-40 0 0 225 0 225 140 0 140 0 0 -225 0 -225 -40 0 c-29 0 -40 -4 -40 -15 0
-13 31 -15 215 -15 184 0 215 2 215 15 0 11 -11 15 -40 15 l-40 0 0 460 0 460
40 0 c29 0 40 4 40 15 0 13 -31 15 -215 15 -184 0 -215 -2 -215 -15 0 -11 11
-15 40 -15 l40 0 0 -215 0 -215 -140 0 -140 0 0 215 0 215 40 0 c29 0 40 4 40
15 0 13 -31 15 -220 15 -189 0 -220 -2 -220 -15z"/>
<path d="M4880 5031 l-105 -27 -3 -92 -3 -92 -39 0 c-29 0 -40 -4 -40 -15 0
-11 11 -15 40 -15 l40 0 0 -255 c0 -273 4 -301 52 -353 42 -44 182 -66 270
-42 72 20 137 102 138 172 0 46 -16 39 -29 -12 -7 -28 -26 -64 -41 -81 -24
-25 -36 -30 -67 -27 -61 5 -63 16 -63 326 l0 272 90 0 c73 0 90 3 90 15 0 12
-17 15 -90 15 l-90 0 0 120 c0 141 13 133 -150 91z"/>
<path d="M4189 4827 c-166 -47 -246 -172 -237 -370 7 -150 62 -242 178 -296
50 -23 67 -26 176 -26 119 0 122 1 190 35 53 27 76 46 101 84 47 70 58 116 57
246 0 97 -4 123 -23 166 -28 64 -81 116 -146 145 -62 28 -224 36 -296 16z
m164 -35 c31 -34 39 -114 35 -345 -4 -263 -10 -286 -84 -287 -69 0 -84 55 -84
320 0 211 6 262 34 305 20 31 74 34 99 7z"/>
<path d="M7340 4833 c-57 -21 -86 -42 -111 -82 l-29 -45 0 57 0 57 -171 0
c-132 0 -170 -3 -167 -12 3 -7 21 -14 41 -16 l37 -3 0 -304 0 -304 -37 -3
c-20 -2 -38 -9 -41 -15 -3 -10 41 -13 197 -13 172 0 201 2 201 15 0 10 -10 15
-31 15 l-31 0 5 228 c2 156 8 239 17 266 19 51 62 96 93 96 50 0 52 -12 55
-312 l3 -278 -30 0 c-21 0 -31 -5 -31 -15 0 -13 29 -15 201 -15 156 0 200 3
197 13 -3 6 -21 13 -41 15 l-37 3 0 238 c0 274 -8 320 -65 370 -19 16 -51 35
-72 40 -40 11 -127 13 -153 4z"/>
<path d="M8895 4821 c-45 -21 -79 -54 -94 -91 -8 -21 -10 -16 -10 33 l-1 57
-170 0 c-144 0 -170 -2 -170 -15 0 -11 11 -15 40 -15 l40 0 0 -305 0 -305 -40
0 c-29 0 -40 -4 -40 -15 0 -13 31 -15 221 -15 172 0 220 3 217 13 -3 7 -25 13
-52 15 l-47 3 3 237 c3 220 5 240 25 277 38 72 93 107 127 82 28 -21 14 -65
-22 -69 -25 -3 -27 -7 -30 -49 -4 -68 26 -101 100 -107 50 -4 58 -2 89 26 31
27 33 35 37 98 2 56 -1 75 -18 102 -37 60 -127 79 -205 43z"/>
<path d="M5495 4816 c-103 -33 -168 -87 -209 -175 -17 -38 -21 -65 -21 -161 0
-96 4 -123 21 -161 31 -66 78 -114 142 -146 54 -26 65 -28 187 -28 147 0 184
12 243 80 29 33 62 95 62 116 0 24 -28 5 -39 -27 -31 -85 -119 -141 -206 -132
-98 12 -136 70 -143 226 l-5 102 197 0 196 0 0 55 c0 121 -68 219 -174 250
-60 18 -196 18 -251 1z m161 -51 c9 -22 14 -69 14 -130 l0 -95 -71 0 -71 0 4
98 c5 124 23 162 74 162 31 0 37 -4 50 -35z"/>
<path d="M7954 4810 c-119 -39 -197 -137 -214 -272 -21 -174 44 -310 179 -371
65 -30 238 -36 311 -12 81 27 138 87 164 173 14 44 -19 21 -44 -31 -17 -33
-41 -62 -69 -82 -37 -26 -52 -30 -106 -30 -116 0 -157 56 -163 223 l-4 102
196 0 196 0 0 48 c0 111 -51 201 -137 242 -69 33 -224 38 -309 10z m183 -50
c7 -19 12 -77 12 -127 l1 -93 -71 0 -71 0 4 103 c4 129 20 160 76 155 32 -3
39 -7 49 -38z"/>
<path d="M6410 4805 c0 -11 11 -15 40 -15 l40 0 0 -305 0 -305 -35 0 c-24 0
-35 -5 -35 -15 0 -13 29 -15 205 -15 176 0 205 2 205 15 0 11 -11 15 -40 15
l-40 0 0 320 0 320 -170 0 c-144 0 -170 -2 -170 -15z"/>
</g>
</svg>
